<?xml version="1.0" standalone="no"?>
<!DOCTYPE svg PUBLIC "-//W3C//DTD SVG 20010904//EN"
 "http://www.w3.org/TR/2001/REC-SVG-20010904/DTD/svg10.dtd">
<svg version="1.0" xmlns="http://www.w3.org/2000/svg"
 width="512.000000pt" height="512.000000pt" viewBox="0 0 512.000000 512.000000"
 preserveAspectRatio="xMidYMid meet">
<metadata>
Created by potrace 1.11, written by Peter Selinger 2001-2013
</metadata>
<g transform="translate(0.000000,512.000000) scale(0.100000,-0.100000)"
fill="#000000" stroke="none">
<path d="M1499 5116 c-2 -2 -38 -7 -78 -10 -41 -4 -77 -9 -80 -11 -4 -2 -22
-6 -41 -9 -122 -19 -335 -99 -473 -178 -350 -199 -616 -523 -742 -902 -19 -56
-37 -114 -40 -131 -3 -16 -13 -68 -23 -115 -16 -78 -17 -210 -17 -1620 0 -844
3 -1551 7 -1570 23 -117 69 -215 143 -307 95 -118 223 -201 375 -242 74 -20
93 -20 1615 -18 847 1 1554 6 1570 10 17 4 55 12 85 18 419 79 808 337 1042
691 142 214 216 406 258 662 17 103 18 214 19 1611 1 1627 3 1560 -54 1696
-82 195 -229 327 -450 403 -60 20 -72 21 -1586 23 -839 2 -1528 1 -1530 -1z
m3056 -249 c110 -33 215 -116 269 -212 100 -181 76 -399 -61 -546 -181 -194
-472 -203 -663 -19 -260 251 -147 684 205 781 71 19 179 18 250 -4z"/>
</g>
</svg>
